<svg width="114" height="48" viewBox="0 0 114 48" fill="none" xmlns="http://www.w3.org/2000/svg">
<g clip-path="url(#clip0_113_1433)">
<path d="M54.212 25.466V23.31H59.844C60.2253 23.31 60.5187 23.1927 60.724 22.958C60.944 22.7233 61.054 22.43 61.054 22.078V19.174H61.032C60.7093 19.57 60.3647 19.9147 59.998 20.208C59.6313 20.4867 59.2133 20.7067 58.744 20.868C58.2893 21.0147 57.7833 21.088 57.226 21.088C56.1993 21.088 55.2827 20.846 54.476 20.362C53.6693 19.878 53.0313 19.2033 52.562 18.338C52.1073 17.458 51.88 16.4533 51.88 15.324C51.88 14.224 52.1073 13.2413 52.562 12.376C53.0313 11.496 53.6987 10.7993 54.564 10.286C55.4293 9.77267 56.4853 9.516 57.732 9.516C58.92 9.516 59.9467 9.76533 60.812 10.264C61.692 10.7627 62.374 11.4667 62.858 12.376C63.342 13.2707 63.584 14.3193 63.584 15.522V22.188C63.584 23.2 63.2907 23.9993 62.704 24.586C62.1173 25.1727 61.318 25.466 60.306 25.466H54.212ZM57.71 18.932C58.3847 18.932 58.964 18.778 59.448 18.47C59.9467 18.1473 60.328 17.722 60.592 17.194C60.8707 16.6513 61.01 16.05 61.01 15.39C61.01 14.686 60.878 14.0553 60.614 13.498C60.35 12.9407 59.9687 12.5007 59.47 12.178C58.986 11.8407 58.3993 11.672 57.71 11.672C57.0353 11.672 56.4487 11.8407 55.95 12.178C55.466 12.5007 55.092 12.9407 54.828 13.498C54.564 14.0407 54.432 14.6567 54.432 15.346C54.432 16.006 54.564 16.6073 54.828 17.15C55.092 17.6927 55.466 18.1253 55.95 18.448C56.4487 18.7707 57.0353 18.932 57.71 18.932ZM71.8938 21.264C70.8085 21.264 69.8625 21.0513 69.0558 20.626C68.2491 20.186 67.6258 19.5847 67.1858 18.822C66.7458 18.0593 66.5258 17.2013 66.5258 16.248V9.78H69.0558V16.226C69.0558 16.798 69.1805 17.304 69.4298 17.744C69.6938 18.1693 70.0385 18.5067 70.4638 18.756C70.9038 18.9907 71.3805 19.108 71.8938 19.108C72.4071 19.108 72.8765 18.9907 73.3018 18.756C73.7418 18.5067 74.0865 18.1693 74.3358 17.744C74.5998 17.304 74.7318 16.798 74.7318 16.226V9.78H77.2618V16.248C77.2618 17.2013 77.0345 18.0593 76.5798 18.822C76.1398 19.5847 75.5165 20.186 74.7098 20.626C73.9178 21.0513 72.9791 21.264 71.8938 21.264ZM80.2973 21V9.78H82.8273V21H80.2973ZM81.5513 8.218C81.1113 8.218 80.73 8.05667 80.4073 7.734C80.0846 7.41133 79.9233 7.03 79.9233 6.59C79.9233 6.15 80.0846 5.76867 80.4073 5.446C80.73 5.12333 81.1113 4.962 81.5513 4.962C82.006 4.962 82.3873 5.12333 82.6953 5.446C83.018 5.76867 83.1793 6.15 83.1793 6.59C83.1793 7.03 83.018 7.41133 82.6953 7.734C82.3873 8.05667 82.006 8.218 81.5513 8.218ZM85.8618 21V4.94H88.3918V21H85.8618ZM91.4262 21V4.94H93.9562V21H91.4262ZM96.2647 21L99.8727 15.962C99.242 15.698 98.692 15.346 98.2227 14.906C97.768 14.4513 97.4087 13.9307 97.1447 13.344C96.8953 12.7573 96.7707 12.1267 96.7707 11.452V9.78H99.3007V11.452C99.3007 11.9213 99.4107 12.354 99.6307 12.75C99.8507 13.1313 100.144 13.454 100.511 13.718C100.892 13.9673 101.303 14.136 101.743 14.224L104.867 9.78H107.661L104.207 14.598C104.925 14.8327 105.541 15.1847 106.055 15.654C106.568 16.1233 106.957 16.6733 107.221 17.304C107.499 17.92 107.639 18.5873 107.639 19.306V21H105.131V19.306C105.131 18.7927 105.006 18.3233 104.757 17.898C104.507 17.4727 104.163 17.128 103.723 16.864C103.297 16.6 102.813 16.4533 102.271 16.424L99.0587 21H96.2647Z" fill="#1D1D1D"/>
<path d="M49.732 39.634C48.8373 39.634 48.0233 39.4947 47.29 39.216C46.5713 38.9227 45.9553 38.5047 45.442 37.962C44.9433 37.4193 44.5547 36.7813 44.276 36.048C44.012 35.3 43.88 34.4787 43.88 33.584C43.88 32.44 44.1073 31.4427 44.562 30.592C45.0313 29.7413 45.6767 29.0813 46.498 28.612C47.3193 28.128 48.258 27.886 49.314 27.886C49.842 27.886 50.3407 27.9667 50.81 28.128C51.2793 28.2893 51.7047 28.5167 52.086 28.81C52.4673 29.1033 52.7753 29.448 53.01 29.844H53.032V23.31H55.562V33.628C55.562 34.86 55.3127 35.9307 54.814 36.84C54.33 37.7347 53.648 38.424 52.768 38.908C51.9027 39.392 50.8907 39.634 49.732 39.634ZM49.732 37.478C50.3773 37.478 50.942 37.324 51.426 37.016C51.9247 36.6933 52.3133 36.2533 52.592 35.696C52.8707 35.1387 53.01 34.4933 53.01 33.76C53.01 33.0267 52.8707 32.3813 52.592 31.824C52.3133 31.2667 51.9247 30.834 51.426 30.526C50.942 30.2033 50.37 30.042 49.71 30.042C49.0793 30.042 48.5147 30.2033 48.016 30.526C47.5173 30.8487 47.1287 31.2887 46.85 31.846C46.5713 32.4033 46.432 33.0413 46.432 33.76C46.432 34.4933 46.5713 35.1387 46.85 35.696C47.1287 36.2533 47.5173 36.6933 48.016 37.016C48.5293 37.324 49.1013 37.478 49.732 37.478ZM64.1803 39.37C62.919 39.37 61.8117 39.1353 60.8583 38.666C59.9197 38.182 59.1863 37.522 58.6583 36.686C58.1303 35.8353 57.8663 34.86 57.8663 33.76C57.8663 32.6013 58.101 31.582 58.5703 30.702C59.0397 29.822 59.685 29.1327 60.5063 28.634C61.3277 28.1353 62.2737 27.886 63.3443 27.886C64.547 27.886 65.537 28.1427 66.3143 28.656C67.0917 29.1693 67.6637 29.8587 68.0303 30.724C68.4117 31.5893 68.6023 32.5573 68.6023 33.628C68.6023 33.7747 68.595 33.9433 68.5803 34.134C68.5657 34.3247 68.5437 34.4713 68.5143 34.574H60.5503C60.6383 35.1607 60.851 35.652 61.1883 36.048C61.5257 36.4293 61.951 36.7227 62.4643 36.928C62.9777 37.1187 63.5497 37.214 64.1803 37.214H67.1943V39.37H64.1803ZM60.5283 32.858H66.0723C66.0577 32.5793 66.0137 32.3007 65.9403 32.022C65.8817 31.7433 65.779 31.4793 65.6323 31.23C65.5003 30.9807 65.3243 30.768 65.1043 30.592C64.899 30.4013 64.6497 30.2547 64.3563 30.152C64.063 30.0347 63.7257 29.976 63.3443 29.976C62.9043 29.976 62.5157 30.064 62.1783 30.24C61.841 30.4013 61.555 30.6213 61.3203 30.9C61.0857 31.164 60.9023 31.472 60.7703 31.824C60.653 32.1613 60.5723 32.506 60.5283 32.858ZM70.9213 39.37V37.214H76.3333C76.5973 37.214 76.8246 37.1553 77.0153 37.038C77.2206 36.9207 77.3746 36.7667 77.4773 36.576C77.5946 36.3853 77.6533 36.1873 77.6533 35.982C77.6533 35.7473 77.6019 35.542 77.4993 35.366C77.3966 35.19 77.2499 35.0507 77.0593 34.948C76.8686 34.8307 76.6486 34.772 76.3993 34.772H74.1993C73.4806 34.772 72.8426 34.6547 72.2853 34.42C71.7279 34.1853 71.2879 33.826 70.9653 33.342C70.6426 32.8433 70.4813 32.22 70.4813 31.472C70.4813 30.8707 70.6279 30.3207 70.9213 29.822C71.2293 29.3233 71.6399 28.92 72.1533 28.612C72.6666 28.304 73.2459 28.15 73.8913 28.15H79.1053V30.306H74.1333C73.7959 30.306 73.5173 30.416 73.2973 30.636C73.0773 30.8413 72.9673 31.098 72.9673 31.406C72.9673 31.6993 73.0773 31.956 73.2973 32.176C73.5173 32.396 73.8106 32.506 74.1773 32.506H76.3113C77.1179 32.506 77.8073 32.6307 78.3793 32.88C78.9513 33.1293 79.3839 33.5033 79.6773 34.002C79.9853 34.5007 80.1393 35.1313 80.1393 35.894C80.1393 36.51 79.9853 37.0893 79.6773 37.632C79.3693 38.16 78.9439 38.5853 78.4013 38.908C77.8733 39.216 77.2719 39.37 76.5973 39.37H70.9213ZM82.6528 39.37V28.15H85.1828V39.37H82.6528ZM83.9068 26.588C83.4668 26.588 83.0854 26.4267 82.7628 26.104C82.4401 25.7813 82.2788 25.4 82.2788 24.96C82.2788 24.52 82.4401 24.1387 82.7628 23.816C83.0854 23.4933 83.4668 23.332 83.9068 23.332C84.3614 23.332 84.7428 23.4933 85.0508 23.816C85.3734 24.1387 85.5348 24.52 85.5348 24.96C85.5348 25.4 85.3734 25.7813 85.0508 26.104C84.7428 26.4267 84.3614 26.588 83.9068 26.588ZM89.9112 43.836V41.68H95.5432C95.9246 41.68 96.2179 41.5627 96.4232 41.328C96.6432 41.0933 96.7532 40.8 96.7532 40.448V37.544H96.7312C96.4086 37.94 96.0639 38.2847 95.6972 38.578C95.3306 38.8567 94.9126 39.0767 94.4432 39.238C93.9886 39.3847 93.4826 39.458 92.9252 39.458C91.8986 39.458 90.9819 39.216 90.1752 38.732C89.3686 38.248 88.7306 37.5733 88.2612 36.708C87.8066 35.828 87.5792 34.8233 87.5792 33.694C87.5792 32.594 87.8066 31.6113 88.2612 30.746C88.7306 29.866 89.3979 29.1693 90.2632 28.656C91.1286 28.1427 92.1846 27.886 93.4312 27.886C94.6192 27.886 95.6459 28.1353 96.5112 28.634C97.3912 29.1327 98.0732 29.8367 98.5572 30.746C99.0412 31.6407 99.2832 32.6893 99.2832 33.892V40.558C99.2832 41.57 98.9899 42.3693 98.4032 42.956C97.8166 43.5427 97.0172 43.836 96.0052 43.836H89.9112ZM93.4092 37.302C94.0839 37.302 94.6632 37.148 95.1472 36.84C95.6459 36.5173 96.0272 36.092 96.2912 35.564C96.5699 35.0213 96.7092 34.42 96.7092 33.76C96.7092 33.056 96.5772 32.4253 96.3132 31.868C96.0492 31.3107 95.6679 30.8707 95.1692 30.548C94.6852 30.2107 94.0986 30.042 93.4092 30.042C92.7346 30.042 92.1479 30.2107 91.6492 30.548C91.1652 30.8707 90.7912 31.3107 90.5272 31.868C90.2632 32.4107 90.1312 33.0267 90.1312 33.716C90.1312 34.376 90.2632 34.9773 90.5272 35.52C90.7912 36.0627 91.1652 36.4953 91.6492 36.818C92.1479 37.1407 92.7346 37.302 93.4092 37.302ZM102.225 39.37V32.902C102.225 31.934 102.445 31.076 102.885 30.328C103.325 29.5653 103.948 28.9713 104.755 28.546C105.562 28.106 106.508 27.886 107.593 27.886C108.678 27.886 109.617 28.106 110.409 28.546C111.216 28.9713 111.839 29.5653 112.279 30.328C112.719 31.076 112.939 31.934 112.939 32.902V39.37H110.431V32.924C110.431 32.352 110.299 31.8533 110.035 31.428C109.771 30.988 109.419 30.6507 108.979 30.416C108.554 30.1667 108.084 30.042 107.571 30.042C107.072 30.042 106.603 30.1667 106.163 30.416C105.738 30.6507 105.393 30.988 105.129 31.428C104.88 31.8533 104.755 32.352 104.755 32.924V39.37H102.225Z" fill="#1D1D1D"/>
<path d="M22.8001 5H10.8001C6.82364 5 3.6001 8.22355 3.6001 12.2V26.6C3.6001 30.5764 6.82365 33.8 10.8001 33.8H15.6001C19.5766 33.8 22.8001 30.5765 22.8001 26.6V24.2" stroke="#1D1D1D" stroke-width="6.8" stroke-linecap="round"/>
<path d="M13.2002 24.2001V21.8001C13.2002 17.8236 16.4237 14.6001 20.4002 14.6001H25.2002C29.1766 14.6001 32.4002 17.8236 32.4002 21.8001V36.2001C32.4002 40.1765 29.1766 43.4001 25.2002 43.4001H13.2002" stroke="#1D1D1D" stroke-width="6.8" stroke-linecap="round"/>
</g>
<defs>
<clipPath id="clip0_113_1433">
<rect width="114" height="48" fill="white"/>
</clipPath>
</defs>
</svg>
